<svg width="20" height="18" viewBox="0 0 20 18" fill="none" xmlns="http://www.w3.org/2000/svg">
<path opacity="0.4" d="M19.82 0.799998L19.34 4.22C18.38 4.14 17.6 4.3 17 4.7C16.4 5.08 15.98 5.64 15.74 6.38C15.52 7.1 15.48 7.94 15.62 8.9H19.82V17.06H11.66V8.9C11.66 6.02 12.33 3.84 13.67 2.36C15.01 0.859999 17.06 0.339998 19.82 0.799998ZM8.96 0.799998L8.48 4.22C7.52 4.14 6.74 4.3 6.14 4.7C5.54 5.08 5.12 5.64 4.88 6.38C4.66 7.1 4.62 7.94 4.76 8.9H8.96V17.06H0.8V8.9C0.8 6.02 1.47 3.84 2.81 2.36C4.15 0.859999 6.2 0.339998 8.96 0.799998Z" fill="#FF9921"/>
</svg>
