<svg width="24" height="24" viewBox="0 0 24 24" fill="none" xmlns="http://www.w3.org/2000/svg">
<path opacity="0.1" fill-rule="evenodd" clip-rule="evenodd" d="M0 12C0 5.37258 5.37258 0 12 0C18.6274 0 24 5.37258 24 12C24 18.6274 18.6274 24 12 24C5.37258 24 0 18.6274 0 12Z" fill="#515151"/>
<path fill-rule="evenodd" clip-rule="evenodd" d="M18.4 11.9912C18.4 12.424 18.3559 12.8563 18.2694 13.2776C18.185 13.6889 18.06 14.0927 17.8962 14.4787C17.7362 14.8579 17.5378 15.2233 17.3059 15.5641C17.0774 15.9027 16.8143 16.2204 16.5252 16.5099C16.2355 16.7983 15.9167 17.0607 15.5783 17.2901C15.2364 17.5204 14.8705 17.7186 14.4911 17.8793C14.1045 18.0422 13.6997 18.167 13.2888 18.2513C12.8669 18.338 12.4331 18.3823 11.9997 18.3823C11.5659 18.3823 11.1321 18.338 10.7109 18.2513C10.2993 18.167 9.89459 18.0422 9.50832 17.8793C9.12893 17.7186 8.76264 17.5204 8.42076 17.2901C8.0823 17.0607 7.76354 16.7983 7.47446 16.5099C7.18508 16.2204 6.92193 15.9027 6.69317 15.5641C6.46253 15.2233 6.26376 14.8579 6.10313 14.4787C5.93936 14.0927 5.81406 13.6889 5.72936 13.2776C5.64374 12.8563 5.59998 12.424 5.59998 11.9912C5.59998 11.5581 5.64371 11.1249 5.72939 10.7045C5.81408 10.2932 5.93938 9.88882 6.10316 9.50342C6.26378 9.12396 6.46256 8.75823 6.69319 8.41744C6.92195 8.07854 7.18511 7.76147 7.47449 7.47155C7.76357 7.18319 8.08233 6.92139 8.42078 6.69234C8.76267 6.46108 9.12895 6.26295 9.50834 6.10191C9.89461 5.93866 10.2993 5.81354 10.7109 5.72992C11.1322 5.6438 11.5659 5.6001 11.9997 5.6001C12.4332 5.6001 12.8669 5.6438 13.2888 5.72992C13.6998 5.81357 14.1045 5.93869 14.4911 6.10191C14.8705 6.26292 15.2364 6.46108 15.5783 6.69234C15.9168 6.92139 16.2356 7.18319 16.5252 7.47155C16.8143 7.76147 17.0775 8.07854 17.3059 8.41744C17.5378 8.75823 17.7362 9.12398 17.8962 9.50342C18.06 9.88882 18.185 10.2932 18.2694 10.7045C18.3559 11.1249 18.4 11.5581 18.4 11.9912ZM9.66766 7.05463C8.14351 7.77334 7.00595 9.17575 6.65124 10.8659C6.79533 10.8672 9.07295 10.8959 11.6971 10.1996C10.7512 8.52133 9.74049 7.15171 9.66766 7.05463ZM12.15 11.0401C9.33577 11.8814 6.6353 11.8208 6.53844 11.8171C6.53686 11.8758 6.53405 11.9325 6.53405 11.9912C6.53405 13.3933 7.06376 14.6715 7.93444 15.638C7.93256 15.6352 9.42828 12.9855 12.3778 12.033C12.449 12.0093 12.5216 11.9881 12.5934 11.9675C12.4563 11.6573 12.3065 11.3465 12.15 11.0401ZM15.6092 7.89504C14.647 7.04776 13.3835 6.53382 11.9997 6.53382C11.5556 6.53382 11.1246 6.5875 10.7118 6.68673C10.7937 6.79659 11.8203 8.15656 12.755 9.8704C14.8173 9.09837 15.5958 7.915 15.6092 7.89504ZM12.966 12.8719C12.9538 12.8759 12.9416 12.8794 12.9297 12.8837C9.70494 14.0063 8.65184 16.2687 8.64045 16.2934C9.56833 17.0139 10.7321 17.4486 11.9997 17.4486C12.7566 17.4486 13.4776 17.2947 14.1335 17.0161C14.0526 16.5393 13.7351 14.8678 12.966 12.8719ZM15.0539 16.5174C16.2811 15.6905 17.1527 14.3773 17.3959 12.8562C17.2834 12.82 15.7542 12.3366 13.9901 12.6191C14.707 14.5864 14.9983 16.1885 15.0539 16.5174ZM13.1757 10.6837C13.3026 10.9439 13.4254 11.2088 13.5388 11.4751C13.5792 11.5706 13.6185 11.6642 13.657 11.7578C15.5346 11.5219 17.3843 11.9188 17.4634 11.935C17.4509 10.6412 16.9874 9.45379 16.2206 8.52416C16.2102 8.5388 15.3336 9.80361 13.1757 10.6837Z" fill="#515151"/>
</svg>
