<svg width="20" height="15" viewBox="0 0 20 15" fill="none" xmlns="http://www.w3.org/2000/svg">
<path d="M17.9452 4.39489C17.9585 4.54773 17.9585 4.69969 17.9585 4.85166C17.9585 9.50231 13.8337 14.8613 6.29554 14.8613C3.97313 14.8613 1.81559 14.284 0 13.2814C0.329737 13.3137 0.647262 13.325 0.99023 13.325C2.83533 13.3288 4.62818 12.7994 6.07979 11.822C5.22432 11.8087 4.39505 11.5665 3.70775 11.1292C3.02046 10.6918 2.50945 10.0813 2.24608 9.38266C2.49949 9.41498 2.75392 9.43681 3.02056 9.43681C3.38795 9.43681 3.75738 9.39314 4.10035 9.31716C3.17195 9.1563 2.33714 8.72445 1.73786 8.09505C1.13857 7.46565 0.811819 6.67755 0.813149 5.86476V5.82109C1.35966 6.08223 1.99369 6.24555 2.66538 6.26738C2.10268 5.94649 1.64128 5.51107 1.32235 4.99995C1.00342 4.48883 0.836875 3.91791 0.837574 3.33812C0.837574 2.68485 1.0401 2.08572 1.39528 1.56345C2.42534 2.6508 3.71006 3.54036 5.16623 4.1745C6.6224 4.80865 8.21755 5.17324 9.84836 5.24467C9.78526 4.98266 9.74659 4.71105 9.74659 4.43856C9.74632 3.97652 9.85217 3.51896 10.0581 3.09204C10.264 2.66513 10.5659 2.27723 10.9467 1.95051C11.3274 1.6238 11.7794 1.36468 12.2769 1.18797C12.7743 1.01126 13.3075 0.920425 13.8459 0.920655C15.0265 0.920655 16.092 1.34511 16.841 2.03157C17.7588 1.87927 18.6389 1.59177 19.4423 1.18179C19.1364 1.99473 18.4956 2.68406 17.6399 3.12065C18.4539 3.04099 19.2494 2.85729 20 2.57568C19.4394 3.27707 18.7447 3.89213 17.9452 4.39489Z" fill="white"/>
</svg>
